<svg width="1060.0099853515624px" height="193.76000366210937px" xmlns="http://www.w3.org/2000/svg" viewBox="-280.0049926757812 -21.880001831054685 1060.0099853515624 193.76000366210937" style="background: rgb(0, 0, 0);" preserveAspectRatio="xMidYMid"><defs><linearGradient id="editing-glowing-gradient" x1="0.4825502516487495" x2="0.5174497483512506" y1="0.00030458649045211894" y2="0.9996954135095479"><stop offset="0" stop-color="#ffffff"></stop><stop offset="1" stop-color="#ffffff"></stop></linearGradient><filter id="editing-glowing" x="-100%" y="-100%" width="300%" height="300%"><feGaussianBlur in="SourceGraphic" result="blur" stdDeviation="1"></feGaussianBlur><feMerge><feMergeNode in="blur"></feMergeNode><feMergeNode in="SourceGraphic"></feMergeNode></feMerge></filter></defs><g filter="url(#editing-glowing)"><g transform="translate(-132.56497812271118, 127.15000343322754)"><path d="M42.97-71.88L67.97 0L55.86 0L37.21-53.91L18.36 0L6.15 0L31.35-71.88L42.97-71.88ZM30.57-22.85L43.65-22.85L46.48-14.94L27.83-14.94L30.57-22.85ZM79.98 22.07L79.98 22.07Q77.05 22.07 73.68 21.29L73.68 21.29L73.68 21.29Q70.31 20.51 68.65 19.43L68.65 19.43L72.46 12.30L72.46 12.30Q73.83 13.09 75.73 13.33L75.73 13.33L75.73 13.33Q77.64 13.57 78.42 13.57L78.42 13.57L78.42 13.57Q81.64 13.57 83.20 10.99L83.20 10.99L83.20 10.99Q84.77 8.40 85.30 4.49L85.30 4.49L85.30 4.49Q85.84 0.59 85.79-3.81L85.79-3.81L85.79-3.81Q85.74-8.20 85.84-11.82L85.84-11.82L85.84-55.08L97.75-55.08L97.75-11.72L97.75-11.72Q97.75-8.01 97.75-4.05L97.75-4.05L97.75-4.05Q97.75-0.10 97.27 3.66L97.27 3.66L97.27 3.66Q96.78 7.42 95.80 10.74L95.80 10.74L95.80 10.74Q94.82 14.06 92.87 16.60L92.87 16.60L92.87 16.60Q90.92 19.14 87.74 20.61L87.74 20.61L87.74 20.61Q84.57 22.07 79.98 22.07L79.98 22.07ZM98.73-72.66L98.73-72.66L98.73-72.66Q98.73-69.73 96.73-67.72L96.73-67.72L96.73-67.72Q94.73-65.72 91.80-65.72L91.80-65.72L91.80-65.72Q88.87-65.72 86.87-67.77L86.87-67.77L86.87-67.77Q84.86-69.82 84.86-72.66L84.86-72.66L84.86-72.66Q84.86-75.59 86.91-77.64L86.91-77.64L86.91-77.64Q88.96-79.69 91.80-79.69L91.80-79.69L91.80-79.69Q94.73-79.69 96.73-77.64L96.73-77.64L96.73-77.64Q98.73-75.59 98.73-72.66ZM126.27-55.08L126.27 0L114.36 0L114.36-55.08L126.27-55.08ZM127.34-72.66L127.34-72.66L127.34-72.66Q127.34-69.73 125.29-67.72L125.29-67.72L125.29-67.72Q123.24-65.72 120.31-65.72L120.31-65.72L120.31-65.72Q117.38-65.72 115.38-67.77L115.38-67.77L115.38-67.77Q113.38-69.82 113.38-72.66L113.38-72.66L113.38-72.66Q113.38-75.59 115.43-77.64L115.43-77.64L115.43-77.64Q117.48-79.69 120.31-79.69L120.31-79.69L120.31-79.69Q123.24-79.69 125.29-77.64L125.29-77.64L125.29-77.64Q127.34-75.59 127.34-72.66ZM142.87-55.08L153.42-55.08L154.69-49.51L154.69 0L142.87 0L142.87-55.08ZM183.89-49.02L183.89-49.02L183.89-49.02Q185.55-47.36 186.47-45.17L186.47-45.17L186.47-45.17Q187.40-42.97 187.84-40.58L187.84-40.58L187.84-40.58Q188.28-38.18 188.38-35.74L188.38-35.74L188.38-35.74Q188.48-33.30 188.48-30.96L188.48-30.96L188.48-1.95L188.48 0L176.56 0L176.56-29.98L176.56-29.98Q176.56-33.30 176.27-36.33L176.27-36.33L176.27-36.33Q175.98-39.36 174.90-41.70L174.90-41.70L174.90-41.70Q173.83-44.04 171.97-45.36L171.97-45.36L171.97-45.36Q170.12-46.68 166.80-46.68L166.80-46.68L166.80-46.68Q165.43-46.68 163.13-46.24L163.13-46.24L163.13-46.24Q160.84-45.80 158.69-44.82L158.69-44.82L158.69-52.34L158.69-52.34Q161.33-53.71 164.40-54.69L164.40-54.69L164.40-54.69Q167.48-55.66 170.41-55.66L170.41-55.66L170.41-55.66Q174.80-55.66 177.83-53.86L177.83-53.86L177.83-53.86Q180.86-52.05 183.89-49.02ZM247.66-55.08L228.32-27.64L250.20 0L236.72 0L220.70-21.09L220.70-34.67L234.38-55.08L247.66-55.08ZM216.70 0L204.79 0L204.79-75.88L216.70-75.88L216.70 0ZM303.42-55.08L315.33-55.08L315.33-55.08Q309.96-40.72 305.76-29.64L305.76-29.64L305.76-29.64Q301.56-18.55 298.44-10.21L298.44-10.21L298.44-10.21Q295.31-1.86 292.92 3.91L292.92 3.91L292.92 3.91Q290.53 9.67 288.53 13.53L288.53 13.53L288.53 13.53Q286.52 17.38 284.77 19.58L284.77 19.58L284.77 19.58Q283.01 21.78 281.15 22.95L281.15 22.95L281.15 22.95Q279.30 24.12 277.10 24.37L277.10 24.37L277.10 24.37Q274.90 24.61 272.07 24.61L272.07 24.61L272.07 24.61Q271.19 24.61 270.02 24.37L270.02 24.37L270.02 24.37Q268.85 24.12 267.72 23.78L267.72 23.78L267.72 23.78Q266.60 23.44 265.72 23.10L265.72 23.10L265.72 23.10Q264.84 22.75 264.55 22.66L264.55 22.66L264.55 22.66Q264.94 20.90 265.33 19.34L265.33 19.34L265.33 19.34Q265.63 17.97 265.97 16.75L265.97 16.75L265.97 16.75Q266.31 15.53 266.50 15.04L266.50 15.04L266.50 15.04Q267.29 15.04 268.90 15.53L268.90 15.53L268.90 15.53Q270.51 16.02 271.29 16.02L271.29 16.02L271.29 16.02Q272.85 16.02 274.07 15.87L274.07 15.87L274.07 15.87Q275.29 15.72 276.27 14.99L276.27 14.99L276.27 14.99Q277.25 14.26 278.13 12.84L278.13 12.84L278.13 12.84Q279.00 11.43 280.08 8.79L280.08 8.79L283.79 0L303.42-55.08ZM285.74-14.75L281.74-5.18L261.23-55.08L273.05-55.08L287.11-18.07L285.74-14.75ZM337.40-16.60L337.40-16.60L337.40-16.60Q337.40-12.21 339.21-10.06L339.21-10.06L339.21-10.06Q341.02-7.91 344.43-7.52L344.43-7.52L344.43 0.39L344.43 0.39Q344.04 0.49 343.16 0.49L343.16 0.49L343.16 0.49Q339.84 0.49 336.77-0.39L336.77-0.39L336.77-0.39Q333.69-1.27 331.35-3.22L331.35-3.22L331.35-3.22Q329.00-5.18 327.69-8.40L327.69-8.40L327.69-8.40Q326.37-11.62 326.37-16.31L326.37-16.31L326.37-16.31Q326.37-20.80 328.27-24.07L328.27-24.07L328.27-24.07Q330.18-27.34 333.15-29.44L333.15-29.44L333.15-29.44Q336.13-31.54 339.94-32.57L339.94-32.57L339.94-32.57Q343.75-33.59 347.66-33.59L347.66-33.59L351.95-33.59L351.95-26.66L349.80-26.66L349.80-26.66Q347.85-26.66 345.70-26.27L345.70-26.27L345.70-26.27Q343.55-25.88 341.70-24.80L341.70-24.80L341.70-24.80Q339.84-23.73 338.62-21.73L338.62-21.73L338.62-21.73Q337.40-19.73 337.40-16.60ZM367.77-17.09L367.77-16.31L367.77-16.31Q367.77-15.53 367.87-14.01L367.87-14.01L367.87-14.01Q367.97-12.50 368.26-10.94L368.26-10.94L368.26-10.94Q368.55-9.38 369.19-8.11L369.19-8.11L369.19-8.11Q369.82-6.84 370.90-6.45L370.90-6.45L367.77 0.10L367.77 0.10Q366.50 0.10 365.09-0.49L365.09-0.49L365.09-0.49Q363.67-1.07 362.35-2.15L362.35-2.15L362.35-2.15Q361.04-3.22 360.11-4.54L360.11-4.54L360.11-4.54Q359.18-5.86 358.69-7.42L358.69-7.42L358.69-7.42Q357.71-4.98 354.83-3.08L354.83-3.08L354.83-3.08Q351.95-1.17 348.44-0.29L348.44-0.29L348.44-7.71L348.44-7.71Q350.78-8.20 352.69-9.62L352.69-9.62L352.69-9.62Q354.59-11.04 355.96-12.99L355.96-12.99L355.96-33.59L355.96-33.59Q355.96-38.38 355.47-41.21L355.47-41.21L355.47-41.21Q354.98-44.04 353.81-45.36L353.81-45.36L353.81-45.36Q352.64-46.68 350.93-47.02L350.93-47.02L350.93-47.02Q349.22-47.36 346.88-47.36L346.88-47.36L346.88-47.36Q344.73-47.36 342.82-46.83L342.82-46.83L342.82-46.83Q340.92-46.29 339.31-45.56L339.31-45.56L339.31-45.56Q337.70-44.82 336.47-43.95L336.47-43.95L336.47-43.95Q335.25-43.07 334.67-42.58L334.67-42.58L330.27-49.32L330.27-49.32Q331.25-50.39 333.20-51.51L333.20-51.51L333.20-51.51Q335.16-52.64 337.70-53.52L337.70-53.52L337.70-53.52Q340.23-54.39 343.21-54.93L343.21-54.93L343.21-54.93Q346.19-55.47 349.41-55.47L349.41-55.47L349.41-55.47Q352.34-55.47 355.13-54.88L355.13-54.88L355.13-54.88Q357.91-54.30 360.21-52.93L360.21-52.93L360.21-52.93Q362.50-51.56 364.21-49.27L364.21-49.27L364.21-49.27Q365.92-46.97 366.60-43.55L366.60-43.55L366.60-43.55Q367.29-40.14 367.53-36.67L367.53-36.67L367.53-36.67Q367.77-33.20 367.77-29.79L367.77-29.79L367.77-17.09ZM439.45-73.44L451.37-73.44L451.37-17.38L451.37-17.38Q451.37-12.30 449.51-8.84L449.51-8.84L449.51-8.84Q447.66-5.37 444.53-3.27L444.53-3.27L444.53-3.27Q441.41-1.17 437.35-0.34L437.35-0.34L437.35-0.34Q433.30 0.49 429.00 0.49L429.00 0.49L429.00 0.49Q426.86 0.49 423.97 0.05L423.97 0.05L423.97 0.05Q421.09-0.39 418.02-1.32L418.02-1.32L418.02-1.32Q414.94-2.25 412.11-3.42L412.11-3.42L412.11-3.42Q409.28-4.59 407.32-6.05L407.32-6.05L412.30-13.96L412.30-13.96Q413.28-13.28 415.09-12.55L415.09-12.55L415.09-12.55Q416.89-11.82 419.04-11.18L419.04-11.18L419.04-11.18Q421.19-10.55 423.54-10.06L423.54-10.06L423.54-10.06Q425.88-9.57 427.93-9.57L427.93-9.57L427.93-9.57Q433.11-9.57 436.18-11.57L436.18-11.57L436.18-11.57Q439.26-13.57 439.45-18.36L439.45-18.36L439.45-73.44ZM477.93-16.60L477.93-16.60L477.93-16.60Q477.93-12.21 479.74-10.06L479.74-10.06L479.74-10.06Q481.54-7.91 484.96-7.52L484.96-7.52L484.96 0.39L484.96 0.39Q484.57 0.49 483.69 0.49L483.69 0.49L483.69 0.49Q480.37 0.49 477.29-0.39L477.29-0.39L477.29-0.39Q474.22-1.27 471.88-3.22L471.88-3.22L471.88-3.22Q469.53-5.18 468.21-8.40L468.21-8.40L468.21-8.40Q466.89-11.62 466.89-16.31L466.89-16.31L466.89-16.31Q466.89-20.80 468.80-24.07L468.80-24.07L468.80-24.07Q470.70-27.34 473.68-29.44L473.68-29.44L473.68-29.44Q476.66-31.54 480.47-32.57L480.47-32.57L480.47-32.57Q484.28-33.59 488.18-33.59L488.18-33.59L492.48-33.59L492.48-26.66L490.33-26.66L490.33-26.66Q488.38-26.66 486.23-26.27L486.23-26.27L486.23-26.27Q484.08-25.88 482.23-24.80L482.23-24.80L482.23-24.80Q480.37-23.73 479.15-21.73L479.15-21.73L479.15-21.73Q477.93-19.73 477.93-16.60ZM508.30-17.09L508.30-16.31L508.30-16.31Q508.30-15.53 508.40-14.01L508.40-14.01L508.40-14.01Q508.50-12.50 508.79-10.94L508.79-10.94L508.79-10.94Q509.08-9.38 509.72-8.11L509.72-8.11L509.72-8.11Q510.35-6.84 511.43-6.45L511.43-6.45L508.30 0.10L508.30 0.10Q507.03 0.10 505.62-0.49L505.62-0.49L505.62-0.49Q504.20-1.07 502.88-2.15L502.88-2.15L502.88-2.15Q501.56-3.22 500.63-4.54L500.63-4.54L500.63-4.54Q499.71-5.86 499.22-7.42L499.22-7.42L499.22-7.42Q498.24-4.98 495.36-3.08L495.36-3.08L495.36-3.08Q492.48-1.17 488.96-0.29L488.96-0.29L488.96-7.71L488.96-7.71Q491.31-8.20 493.21-9.62L493.21-9.62L493.21-9.62Q495.12-11.04 496.48-12.99L496.48-12.99L496.48-33.59L496.48-33.59Q496.48-38.38 496.00-41.21L496.00-41.21L496.00-41.21Q495.51-44.04 494.34-45.36L494.34-45.36L494.34-45.36Q493.16-46.68 491.46-47.02L491.46-47.02L491.46-47.02Q489.75-47.36 487.40-47.36L487.40-47.36L487.40-47.36Q485.25-47.36 483.35-46.83L483.35-46.83L483.35-46.83Q481.45-46.29 479.83-45.56L479.83-45.56L479.83-45.56Q478.22-44.82 477.00-43.95L477.00-43.95L477.00-43.95Q475.78-43.07 475.20-42.58L475.20-42.58L470.80-49.32L470.80-49.32Q471.78-50.39 473.73-51.51L473.73-51.51L473.73-51.51Q475.68-52.64 478.22-53.52L478.22-53.52L478.22-53.52Q480.76-54.39 483.74-54.93L483.74-54.93L483.74-54.93Q486.72-55.47 489.94-55.47L489.94-55.47L489.94-55.47Q492.87-55.47 495.65-54.88L495.65-54.88L495.65-54.88Q498.44-54.30 500.73-52.93L500.73-52.93L500.73-52.93Q503.03-51.56 504.74-49.27L504.74-49.27L504.74-49.27Q506.45-46.97 507.13-43.55L507.13-43.55L507.13-43.55Q507.81-40.14 508.06-36.67L508.06-36.67L508.06-36.67Q508.30-33.20 508.30-29.79L508.30-29.79L508.30-17.09ZM560.94-75.88L572.85-75.88L572.85 0L561.62 0L560.94-6.54L560.94-75.88ZM523.44-28.32L523.44-28.32L523.44-28.32Q523.44-35.94 525.54-41.11L525.54-41.11L525.54-41.11Q527.64-46.29 530.96-49.51L530.96-49.51L530.96-49.51Q534.28-52.73 538.33-54.15L538.33-54.15L538.33-54.15Q542.38-55.57 546.29-55.57L546.29-55.57L546.29-55.57Q549.32-55.57 552.05-54.88L552.05-54.88L552.05-54.88Q554.79-54.20 556.93-52.93L556.93-52.93L556.93-42.58L556.93-42.58Q555.27-44.34 553.22-45.41L553.22-45.41L553.22-45.41Q551.17-46.48 548.63-46.48L548.63-46.48L548.63-46.48Q545.61-46.48 543.26-44.97L543.26-44.97L543.26-44.97Q540.92-43.46 539.31-40.82L539.31-40.82L539.31-40.82Q537.70-38.18 536.82-34.77L536.82-34.77L536.82-34.77Q535.94-31.35 535.94-27.44L535.94-27.44L535.94-27.44Q535.94-23.54 536.91-20.17L536.91-20.17L536.91-20.17Q537.89-16.80 539.55-14.26L539.55-14.26L539.55-14.26Q541.21-11.72 543.60-10.25L543.60-10.25L543.60-10.25Q546.00-8.79 548.83-8.79L548.83-8.79L548.83-8.79Q553.61-8.79 556.93-12.60L556.93-12.60L556.93-2.44L556.93-2.44Q554.59-1.17 551.51-0.34L551.51-0.34L551.51-0.34Q548.44 0.49 545.02 0.49L545.02 0.49L545.02 0.49Q541.11 0.49 537.35-0.93L537.35-0.93L537.35-0.93Q533.59-2.34 530.66-5.57L530.66-5.57L530.66-5.57Q526.95-9.77 525.20-15.97L525.20-15.97L525.20-15.97Q523.44-22.17 523.44-28.32ZM589.55 0L589.55-75.88L601.37-75.88L601.37 0L589.55 0ZM630.57-49.02L630.57-49.02L630.57-49.02Q632.23-47.36 633.15-45.17L633.15-45.17L633.15-45.17Q634.08-42.97 634.52-40.58L634.52-40.58L634.52-40.58Q634.96-38.18 635.06-35.74L635.06-35.74L635.06-35.74Q635.16-33.30 635.16-30.96L635.16-30.96L635.16-1.95L635.16 0L623.24 0L623.24-29.98L623.24-29.98Q623.24-33.30 622.95-36.33L622.95-36.33L622.95-36.33Q622.66-39.36 621.58-41.70L621.58-41.70L621.58-41.70Q620.51-44.04 618.65-45.36L618.65-45.36L618.65-45.36Q616.80-46.68 613.48-46.68L613.48-46.68L613.48-46.68Q612.11-46.68 609.81-46.24L609.81-46.24L609.81-46.24Q607.52-45.80 605.37-44.82L605.37-44.82L605.37-52.34L605.37-52.34Q608.01-53.71 611.08-54.69L611.08-54.69L611.08-54.69Q614.16-55.66 617.09-55.66L617.09-55.66L617.09-55.66Q621.48-55.66 624.51-53.86L624.51-53.86L624.51-53.86Q627.54-52.05 630.57-49.02ZM658.59-16.60L658.59-16.60L658.59-16.60Q658.59-12.21 660.40-10.06L660.40-10.06L660.40-10.06Q662.21-7.91 665.63-7.52L665.63-7.52L665.63 0.39L665.63 0.39Q665.23 0.49 664.36 0.49L664.36 0.49L664.36 0.49Q661.04 0.49 657.96-0.39L657.96-0.39L657.96-0.39Q654.88-1.27 652.54-3.22L652.54-3.22L652.54-3.22Q650.20-5.18 648.88-8.40L648.88-8.40L648.88-8.40Q647.56-11.62 647.56-16.31L647.56-16.31L647.56-16.31Q647.56-20.80 649.46-24.07L649.46-24.07L649.46-24.07Q651.37-27.34 654.35-29.44L654.35-29.44L654.35-29.44Q657.32-31.54 661.13-32.57L661.13-32.57L661.13-32.57Q664.94-33.59 668.85-33.59L668.85-33.59L673.14-33.59L673.14-26.66L671.00-26.66L671.00-26.66Q669.04-26.66 666.89-26.27L666.89-26.27L666.89-26.27Q664.75-25.88 662.89-24.80L662.89-24.80L662.89-24.80Q661.04-23.73 659.81-21.73L659.81-21.73L659.81-21.73Q658.59-19.73 658.59-16.60ZM688.96-17.09L688.96-16.31L688.96-16.31Q688.96-15.53 689.06-14.01L689.06-14.01L689.06-14.01Q689.16-12.50 689.45-10.94L689.45-10.94L689.45-10.94Q689.75-9.38 690.38-8.11L690.38-8.11L690.38-8.11Q691.02-6.84 692.09-6.45L692.09-6.45L688.96 0.10L688.96 0.10Q687.70 0.10 686.28-0.49L686.28-0.49L686.28-0.49Q684.86-1.07 683.54-2.15L683.54-2.15L683.54-2.15Q682.23-3.22 681.30-4.54L681.30-4.54L681.30-4.54Q680.37-5.86 679.88-7.42L679.88-7.42L679.88-7.42Q678.91-4.98 676.03-3.08L676.03-3.08L676.03-3.08Q673.14-1.17 669.63-0.29L669.63-0.29L669.63-7.71L669.63-7.71Q671.97-8.20 673.88-9.62L673.88-9.62L673.88-9.62Q675.78-11.04 677.15-12.99L677.15-12.99L677.15-33.59L677.15-33.59Q677.15-38.38 676.66-41.21L676.66-41.21L676.66-41.21Q676.17-44.04 675-45.36L675-45.36L675-45.36Q673.83-46.68 672.12-47.02L672.12-47.02L672.12-47.02Q670.41-47.36 668.07-47.36L668.07-47.36L668.07-47.36Q665.92-47.36 664.01-46.83L664.01-46.83L664.01-46.83Q662.11-46.29 660.50-45.56L660.50-45.56L660.50-45.56Q658.89-44.82 657.67-43.95L657.67-43.95L657.67-43.95Q656.45-43.07 655.86-42.58L655.86-42.58L651.46-49.32L651.46-49.32Q652.44-50.39 654.39-51.51L654.39-51.51L654.39-51.51Q656.35-52.64 658.89-53.52L658.89-53.52L658.89-53.52Q661.43-54.39 664.40-54.93L664.40-54.93L664.40-54.93Q667.38-55.47 670.61-55.47L670.61-55.47L670.61-55.47Q673.54-55.47 676.32-54.88L676.32-54.88L676.32-54.88Q679.10-54.30 681.40-52.93L681.40-52.93L681.40-52.93Q683.69-51.56 685.40-49.27L685.40-49.27L685.40-49.27Q687.11-46.97 687.79-43.55L687.79-43.55L687.79-43.55Q688.48-40.14 688.72-36.67L688.72-36.67L688.72-36.67Q688.96-33.20 688.96-29.79L688.96-29.79L688.96-17.09ZM724.32 0.39L704.98-55.08L718.36-55.08L729.98-15.92L729.98 0.39L724.32 0.39ZM733.98-15.92L745.70-55.08L758.98-55.08L739.65 0.39L733.98 0.39L733.98-15.92Z" fill="url(#editing-glowing-gradient)"></path></g></g><style>text {
  font-size: 64px;
  font-family: Arial Black;
  dominant-baseline: central;
  text-anchor: middle;
}</style></svg>